<svg id="visual" viewBox="0 0 960 540" width="960" height="540" xmlns="http://www.w3.org/2000/svg" xmlns:xlink="http://www.w3.org/1999/xlink" version="1.1"><rect x="0" y="0" width="960" height="540" fill="#001220"></rect><path d="M0 330L13.3 328.7C26.7 327.3 53.3 324.7 80 324.8C106.7 325 133.3 328 160 327.3C186.7 326.7 213.3 322.3 240 318.7C266.7 315 293.3 312 320 312C346.7 312 373.3 315 400 323.8C426.7 332.7 453.3 347.3 480 356.5C506.7 365.7 533.3 369.3 560 362.8C586.7 356.3 613.3 339.7 640 332.7C666.7 325.7 693.3 328.3 720 324.2C746.7 320 773.3 309 800 306.5C826.7 304 853.3 310 880 309.3C906.7 308.7 933.3 301.3 946.7 297.7L960 294L960 541L946.7 541C933.3 541 906.7 541 880 541C853.3 541 826.7 541 800 541C773.3 541 746.7 541 720 541C693.3 541 666.7 541 640 541C613.3 541 586.7 541 560 541C533.3 541 506.7 541 480 541C453.3 541 426.7 541 400 541C373.3 541 346.7 541 320 541C293.3 541 266.7 541 240 541C213.3 541 186.7 541 160 541C133.3 541 106.7 541 80 541C53.3 541 26.7 541 13.3 541L0 541Z" fill="#a5b4fb"></path><path d="M0 331L13.3 341C26.7 351 53.3 371 80 376.3C106.7 381.7 133.3 372.3 160 369C186.7 365.7 213.3 368.3 240 372.2C266.7 376 293.3 381 320 387.7C346.7 394.3 373.3 402.7 400 407.2C426.7 411.7 453.3 412.3 480 411.5C506.7 410.7 533.3 408.3 560 410.2C586.7 412 613.3 418 640 408.2C666.7 398.3 693.3 372.7 720 367.2C746.7 361.7 773.3 376.3 800 385.7C826.7 395 853.3 399 880 393.5C906.7 388 933.3 373 946.7 365.5L960 358L960 541L946.7 541C933.3 541 906.7 541 880 541C853.3 541 826.7 541 800 541C773.3 541 746.7 541 720 541C693.3 541 666.7 541 640 541C613.3 541 586.7 541 560 541C533.3 541 506.7 541 480 541C453.3 541 426.7 541 400 541C373.3 541 346.7 541 320 541C293.3 541 266.7 541 240 541C213.3 541 186.7 541 160 541C133.3 541 106.7 541 80 541C53.3 541 26.7 541 13.3 541L0 541Z" fill="#909ff9"></path><path d="M0 423L13.3 424C26.7 425 53.3 427 80 419.5C106.7 412 133.3 395 160 390.7C186.7 386.3 213.3 394.7 240 403.8C266.7 413 293.3 423 320 417.2C346.7 411.3 373.3 389.7 400 385.5C426.7 381.3 453.3 394.7 480 399.2C506.7 403.7 533.3 399.3 560 404C586.7 408.7 613.3 422.3 640 418C666.7 413.7 693.3 391.3 720 387.8C746.7 384.3 773.3 399.7 800 399.2C826.7 398.7 853.3 382.3 880 382.2C906.7 382 933.3 398 946.7 406L960 414L960 541L946.7 541C933.3 541 906.7 541 880 541C853.3 541 826.7 541 800 541C773.3 541 746.7 541 720 541C693.3 541 666.7 541 640 541C613.3 541 586.7 541 560 541C533.3 541 506.7 541 480 541C453.3 541 426.7 541 400 541C373.3 541 346.7 541 320 541C293.3 541 266.7 541 240 541C213.3 541 186.7 541 160 541C133.3 541 106.7 541 80 541C53.3 541 26.7 541 13.3 541L0 541Z" fill="#7d8af6"></path><path d="M0 450L13.3 446.7C26.7 443.3 53.3 436.7 80 435.3C106.7 434 133.3 438 160 434C186.7 430 213.3 418 240 416.5C266.7 415 293.3 424 320 427.7C346.7 431.3 373.3 429.7 400 433.2C426.7 436.7 453.3 445.3 480 445.5C506.7 445.7 533.3 437.3 560 428.8C586.7 420.3 613.3 411.7 640 409C666.7 406.3 693.3 409.7 720 415.8C746.7 422 773.3 431 800 430.2C826.7 429.3 853.3 418.7 880 418.3C906.7 418 933.3 428 946.7 433L960 438L960 541L946.7 541C933.3 541 906.7 541 880 541C853.3 541 826.7 541 800 541C773.3 541 746.7 541 720 541C693.3 541 666.7 541 640 541C613.3 541 586.7 541 560 541C533.3 541 506.7 541 480 541C453.3 541 426.7 541 400 541C373.3 541 346.7 541 320 541C293.3 541 266.7 541 240 541C213.3 541 186.7 541 160 541C133.3 541 106.7 541 80 541C53.3 541 26.7 541 13.3 541L0 541Z" fill="#6c74f2"></path><path d="M0 460L13.3 460.2C26.7 460.3 53.3 460.7 80 463.2C106.7 465.7 133.3 470.3 160 469.3C186.7 468.3 213.3 461.7 240 460.7C266.7 459.7 293.3 464.3 320 464.2C346.7 464 373.3 459 400 463.5C426.7 468 453.3 482 480 487.5C506.7 493 533.3 490 560 485.8C586.7 481.7 613.3 476.3 640 472C666.7 467.7 693.3 464.3 720 459.8C746.7 455.3 773.3 449.7 800 455.5C826.7 461.3 853.3 478.7 880 479.5C906.7 480.3 933.3 464.7 946.7 456.8L960 449L960 541L946.7 541C933.3 541 906.7 541 880 541C853.3 541 826.7 541 800 541C773.3 541 746.7 541 720 541C693.3 541 666.7 541 640 541C613.3 541 586.7 541 560 541C533.3 541 506.7 541 480 541C453.3 541 426.7 541 400 541C373.3 541 346.7 541 320 541C293.3 541 266.7 541 240 541C213.3 541 186.7 541 160 541C133.3 541 106.7 541 80 541C53.3 541 26.7 541 13.3 541L0 541Z" fill="#5c5eec"></path><path d="M0 501L13.3 499C26.7 497 53.3 493 80 494.8C106.7 496.7 133.3 504.3 160 504.7C186.7 505 213.3 498 240 496.2C266.7 494.3 293.3 497.7 320 496.2C346.7 494.7 373.3 488.3 400 486.8C426.7 485.3 453.3 488.7 480 495.8C506.7 503 533.3 514 560 511.7C586.7 509.3 613.3 493.7 640 491.8C666.7 490 693.3 502 720 507.7C746.7 513.3 773.3 512.7 800 506.3C826.7 500 853.3 488 880 485.5C906.7 483 933.3 490 946.7 493.5L960 497L960 541L946.7 541C933.3 541 906.7 541 880 541C853.3 541 826.7 541 800 541C773.3 541 746.7 541 720 541C693.3 541 666.7 541 640 541C613.3 541 586.7 541 560 541C533.3 541 506.7 541 480 541C453.3 541 426.7 541 400 541C373.3 541 346.7 541 320 541C293.3 541 266.7 541 240 541C213.3 541 186.7 541 160 541C133.3 541 106.7 541 80 541C53.3 541 26.7 541 13.3 541L0 541Z" fill="#4f46e4"></path></svg>